<svg width="171" height="48" viewBox="0 0 171 48" fill="none" xmlns="http://www.w3.org/2000/svg">
<g style="mix-blend-mode:difference" clip-path="url(#clip0_1389_188)">
<path fill-rule="evenodd" clip-rule="evenodd" d="M32.9195 36.5866C34.5307 37.4044 36.2723 37.7872 38.1699 37.7872C40.8552 37.7872 42.9089 37.3156 44.3053 36.32C45.8039 35.234 46.5483 34.1333 47.1121 32.9067H47.8396V37.7872H51.911V11.234L47.9036 11.2533V24.3734C47.9036 27.609 47.0981 30.0443 45.4868 31.68C43.8756 33.3157 41.8169 34.1333 39.3105 34.1333C37.0908 34.1333 34.9144 33.8542 33.5896 32.6809C32.3007 31.5075 31.5539 29.1489 31.5539 26.5532V11.234H27.4824V27.0638C27.4824 29.3749 28.1142 31.5558 29.0092 33.1915C29.9402 34.7915 31.3442 35.769 32.9195 36.5866Z" fill="#FDFCFB"/>
<path fill-rule="evenodd" clip-rule="evenodd" d="M0 0V37.7872H23.4107V33.7021H4.07143V0H0Z" fill="#FDFCFB"/>
<path d="M55.9824 37.7872V11.234H60.0654L60.0539 14.9037H60.7099C61.2113 13.9951 62.0347 13.1562 63.1804 12.3874C64.3263 11.6184 65.9375 11.234 68.014 11.234C70.0548 11.234 71.7019 11.6709 72.955 12.5446C74.244 13.4183 75.175 14.4843 75.7478 15.7425H76.4997C77.1085 14.4843 78.0215 13.4183 79.2387 12.5446C80.492 11.6709 82.2285 11.234 84.4482 11.234C86.2027 11.234 87.7424 11.5835 89.0671 12.2825C90.3919 12.9815 91.4301 13.9951 92.182 15.3231C92.9698 16.6162 93.6431 18.7575 93.6431 20.5749V37.7872H89.5717V20.1103C89.5717 18.3978 88.6017 17.2978 87.5633 16.3191C86.5609 15.3056 85.1465 14.7988 83.3204 14.7988C81.387 14.7988 79.7939 15.4105 78.5405 16.6337C77.3233 17.8569 76.3396 19.5117 76.3396 21.8183V37.7872H72.2681V20.3558C72.2681 18.6432 71.9526 17.2978 70.9142 16.3191C69.9118 15.3056 68.4974 14.7988 66.6714 14.7988C64.7379 14.7988 63.1448 15.4105 61.8914 16.6337C60.6742 17.8569 60.0654 19.6218 60.0654 21.9285V37.7872H55.9824Z" fill="#FDFCFB"/>
<path fill-rule="evenodd" clip-rule="evenodd" d="M110.946 37.7872C108.335 37.7872 106.024 37.2567 104.012 36.1951C102.036 35.1336 100.484 33.6441 99.355 31.7267C98.2606 29.7751 97.7139 27.4809 97.7139 24.8445V24.1768C97.7139 21.5746 98.2606 19.2976 99.355 17.3459C100.484 15.3942 102.036 13.8876 104.012 12.8262C106.024 11.7647 108.335 11.234 110.946 11.234C113.557 11.234 115.851 11.7647 117.827 12.8262C119.839 13.8876 121.391 15.3942 122.485 17.3459C123.614 19.2976 124.178 21.5746 124.178 24.1768V24.8445C124.178 27.4809 123.614 29.7751 122.485 31.7267C121.391 33.6441 119.839 35.1336 117.827 36.1951C115.851 37.2567 113.557 37.7872 110.946 37.7872ZM117.509 31.624C115.886 33.3019 113.699 34.1407 110.946 34.1407C108.23 34.1407 106.042 33.3019 104.383 31.624C102.724 29.9121 101.895 27.6179 101.895 24.7418V24.2795C101.895 21.4034 102.724 19.1264 104.383 17.4486C106.042 15.7366 108.23 14.8806 110.946 14.8806C113.699 14.8806 115.886 15.7366 117.509 17.4486C119.168 19.1264 119.997 21.4034 119.997 24.2795V24.7418C119.997 27.6179 119.168 29.9121 117.509 31.624Z" fill="#FDFCFB"/>
<path d="M128.25 11.2533V37.7872H132.321V21.4468C132.321 19.2424 132.694 17.6177 133.84 16.5867C135.022 15.52 136.561 14.9866 138.459 14.9866H142.5V11.234H138.938C137.362 11.234 135.881 11.4134 134.914 11.9467C133.947 12.48 133.296 13.1601 132.83 14.2979L132.321 14.2934V11.234L128.25 11.2533Z" fill="#FDFCFB"/>
<path d="M149.625 44.4255V48H166.274C167.813 48 168.976 47.5911 169.764 46.7733C170.588 45.9556 171 44.8357 171 43.4133V11.2533H166.928V24.5106C166.928 27.7462 165.951 30.0443 164.34 31.68C162.729 33.3157 160.671 34.1333 158.164 34.1333C155.944 34.1333 154.172 33.5467 152.847 32.3733C151.558 31.2 150.643 29.6239 150.643 27.0638V18.8936V11.234L146.571 11.2533V27.0638C146.571 29.3749 147.203 31.5734 148.098 33.1733C149.029 34.7733 150.197 35.769 151.773 36.5866C153.384 37.4044 155.139 37.8134 157.036 37.8134C158.826 37.8134 160.312 37.6 161.494 37.1733C162.675 36.711 163.624 36.1244 164.34 35.4134C165.092 34.6666 165.647 33.92 166.005 33.1733H166.757V42.6667C166.757 43.7333 166.44 44.4255 165.402 44.4255H149.625Z" fill="#FDFCFB"/>
</g>
<defs>
<clipPath id="clip0_1389_188">
<rect width="171" height="48" fill="white"/>
</clipPath>
</defs>
</svg>
